PathFileType	4	(X/Y/Z)	C:/Users/opensim2020/Desktop/walking_exp_matlab/subject06_walking23_straight_04.trc	
DataRate	CameraRate	NumFrames	NumMarkers	Units	OrigDataRate	OrigDataStartFrame	OrigNumFrames	
100.00	100.00	4	45	mm	100.00	2356	145	
Frame#	Time	LFHD			RFHD			LBHD			RBHD			C7			T10			CLAV			STRN			RBAK			LSHO			LUPA			LELB			LFRM			LWRA			LWRB			LFIN			RSHO			RUPA			RELB			RFRM			RWRA			RWRB			RFIN			LASI			RASI			LPSI			RPSI			LTHI			LKNE			LTIB			LANK			LHEE			LTOE			RTHI			RKNE			RTIB			RANK			RHEE			RTOE			*39			*40			*41			*42			*43			*44			
		X1	Y1	Z1	X2	Y2	Z2	X3	Y3	Z3	X4	Y4	Z4	X5	Y5	Z5	X6	Y6	Z6	X7	Y7	Z7	X8	Y8	Z8	X9	Y9	Z9	X10	Y10	Z10	X11	Y11	Z11	X12	Y12	Z12	X13	Y13	Z13	X14	Y14	Z14	X15	Y15	Z15	X16	Y16	Z16	X17	Y17	Z17	X18	Y18	Z18	X19	Y19	Z19	X20	Y20	Z20	X21	Y21	Z21	X22	Y22	Z22	X23	Y23	Z23	X24	Y24	Z24	X25	Y25	Z25	X26	Y26	Z26	X27	Y27	Z27	X28	Y28	Z28	X29	Y29	Z29	X30	Y30	Z30	X31	Y31	Z31	X32	Y32	Z32	X33	Y33	Z33	X34	Y34	Z34	X35	Y35	Z35	X36	Y36	Z36	X37	Y37	Z37	X38	Y38	Z38	X39	Y39	Z39	X40	Y40	Z40	X41	Y41	Z41	X42	Y42	Z42	X43	Y43	Z43	X44	Y44	Z44	X45	Y45	Z45	

91	0.900	-912.67896	-391.32013	1665.80225	-1044.21924	-393.67206	1658.31140	-916.27161	-259.34000	1609.28516	-1045.63672	-263.43878	1606.90405	-974.81250	-263.80551	1452.98975	-990.07861	-235.22250	1124.26868	-975.41217	-375.48239	1377.21655	-970.51807	-416.04337	1201.98230	-1056.23779	-193.48068	1283.80139	-816.29840	-308.83926	1408.51501	-742.75677	-293.02887	1210.01746	-730.52704	-286.06445	1097.56873	-709.23047	-349.46173	961.71381	-751.88239	-448.75592	881.19287	-718.33228	-393.67511	851.28363	-714.97552	-464.42017	795.79584	-1135.90076	-326.59415	1413.51355	-1232.15723	-263.13300	1228.84924	-1254.44177	-256.39362	1108.81909	-1282.34436	-270.17719	991.83118	-1264.95862	-336.66284	853.54559	-1300.82117	-279.01459	855.65527	-1310.47522	-316.81268	780.85242	-879.83545	-409.63995	963.23511	-1099.24573	-415.62906	974.18683	-911.48889	-252.51611	988.72119	-1079.35083	-263.81128	998.50720	-830.19598	-395.16626	647.34991	-851.76788	-437.72159	490.58780	-852.18915	-265.95569	316.44397	-883.90491	-145.61807	192.20404	-929.95868	-105.22053	206.12692	-885.24518	-226.48772	72.81127	-1143.21265	-376.55811	634.20435	-1111.07007	-388.24377	510.37436	-1096.27979	-325.37241	248.51430	-1036.53247	-298.46744	68.90621	-991.09729	-257.54123	48.02977	-1042.35693	-450.82480	31.24839	-972.68359	-291.70673	1703.85681															 
92	0.910	-912.48120	-403.55685	1666.14307	-1044.01404	-406.08603	1659.03052	-916.53882	-271.40384	1610.00464	-1045.24951	-276.17419	1607.73792	-975.27844	-276.01675	1453.49426	-990.97437	-247.04073	1124.98633	-975.92621	-387.49988	1377.82629	-971.55011	-428.02850	1202.52771	-1057.54321	-205.62283	1284.62952	-816.85663	-320.59473	1408.80774	-743.78351	-303.69208	1210.25867	-731.67682	-295.60379	1097.85229	-710.40924	-354.60275	959.53827	-752.11151	-450.78415	874.76031	-718.85028	-394.18765	847.32544	-715.40289	-462.07132	788.40540	-1136.37537	-338.87903	1414.63843	-1233.23279	-276.71411	1229.78638	-1255.69714	-270.90088	1109.89221	-1283.41858	-287.90588	993.41138	-1265.23877	-358.10342	857.19061	-1301.49060	-300.90067	857.57428	-1310.70020	-341.14102	783.97827	-881.37811	-422.40649	964.53564	-1100.72632	-426.47214	973.98541	-911.77325	-264.84528	989.82941	-1079.81860	-275.08078	998.89490	-830.55530	-411.57950	649.62360	-852.76678	-456.90665	493.69034	-853.66260	-291.07037	313.56070	-885.31866	-175.79703	184.46742	-931.53723	-135.04085	196.14244	-885.07977	-262.61728	69.82837	-1143.25000	-383.40051	634.01080	-1111.89697	-392.76117	509.75079	-1096.27869	-327.19220	248.58694	-1036.28125	-298.78244	69.24057	-990.79187	-258.53409	48.15248	-1042.43982	-451.03006	31.14498	-972.42664	-304.02414	1704.55823															 
93	0.920	-912.21332	-415.75653	1666.23047	-1043.93408	-418.57935	1659.76099	-916.41852	-283.62677	1610.17761	-1045.80017	-288.06769	1608.43958	-975.91687	-287.98056	1454.14624	-991.88068	-258.84149	1125.50610	-976.42535	-399.63165	1378.25769	-972.55957	-440.02991	1202.88843	-1058.68250	-217.66316	1285.28259	-817.36328	-332.51337	1408.85095	-744.77423	-314.27933	1210.20911	-732.93732	-305.21362	1097.71179	-711.31677	-359.25064	957.09198	-752.23010	-452.56271	868.42468	-719.76917	-394.29233	843.60321	-715.53333	-459.70361	781.58496	-1136.83044	-351.11063	1415.44202	-1234.66565	-290.05673	1230.78674	-1257.00574	-285.29132	1110.81091	-1284.45984	-305.47296	994.92706	-1265.24414	-379.90762	861.10321	-1301.89941	-322.98975	859.50116	-1310.72070	-365.52820	787.24640	-882.84808	-435.00583	965.39233	-1102.00500	-437.39661	973.65533	-912.04767	-277.09555	990.50159	-1080.20288	-286.17523	999.11169	-830.79071	-427.84457	651.73950	-853.70752	-475.64548	496.56528	-854.94324	-316.18283	310.03571	-886.84747	-206.82402	175.80199	-933.33344	-165.72401	185.33482	-885.04413	-299.45840	66.29704	-1143.28210	-390.32053	633.80365	-1112.70544	-397.51306	509.25494	-1096.33704	-329.29492	248.67969	-1036.18152	-299.07224	69.65240	-990.44464	-259.03088	48.60557	-1042.56409	-451.13556	31.01588	-972.10822	-316.33548	1704.98560															 
94	0.930	-911.83075	-427.88623	1666.18640	-1043.62341	-430.88239	1660.10767	-916.49463	-295.72275	1610.14124	-1045.77710	-300.28046	1608.93140	-976.29773	-300.16928	1454.34387	-992.59509	-270.78265	1125.66821	-976.96674	-411.66217	1378.42200	-973.57550	-451.93909	1202.98279	-1059.56555	-229.95815	1285.58301	-817.91321	-344.59674	1408.57654	-745.76294	-324.94934	1209.85071	-734.31421	-314.63074	1097.27295	-712.29639	-364.07523	954.86578	-752.23999	-454.10037	862.18329	-720.33655	-394.38507	839.90131	-715.72528	-456.94574	775.00531	-1137.32642	-363.22363	1415.94568	-1235.57166	-303.30692	1231.25586	-1258.32153	-299.51868	1111.47119	-1285.46472	-322.94803	996.25970	-1265.20349	-401.43253	865.01245	-1302.32385	-344.89151	861.54822	-1310.61060	-389.89362	790.70673	-884.20557	-447.44485	965.98273	-1103.18335	-448.27328	973.21704	-912.26959	-289.20175	990.92395	-1080.45093	-297.34161	999.13904	-830.97461	-444.05661	653.77338	-854.57452	-493.98297	499.22824	-856.18323	-341.60565	306.00540	-888.37537	-238.75163	166.61394	-935.23346	-197.45670	173.86734	-885.30365	-336.95953	62.33379	-1143.30542	-397.32339	633.48651	-1113.50696	-402.35284	508.54886	-1096.42664	-331.45660	248.77979	-1036.06885	-299.37677	70.08703	-990.16992	-258.55725	49.87484	-1042.66650	-451.29279	30.93974	-971.75867	-328.55154	1705.14331															 
